<?xml version="1.0" standalone="no"?>
<!DOCTYPE svg PUBLIC "-//W3C//DTD SVG 20010904//EN"
 "http://www.w3.org/TR/2001/REC-SVG-20010904/DTD/svg10.dtd">
<svg version="1.0" xmlns="http://www.w3.org/2000/svg"
 width="700.000000pt" height="700.000000pt" viewBox="0 0 700.000000 700.000000"
 preserveAspectRatio="xMidYMid meet">
<metadata>
Created by potrace 1.11, written by Peter Selinger 2001-2013
</metadata>
<g transform="translate(0.000000,700.000000) scale(0.100000,-0.100000)"
fill="#000000" stroke="none">
<path d="M0 3500 l0 -3500 3500 0 3500 0 0 3500 0 3500 -3500 0 -3500 0 0
-3500z m1712 1029 l3 -642 115 109 c210 198 410 387 830 783 l415 390 265 1
265 0 -30 -29 c-17 -15 -185 -174 -375 -352 -190 -178 -515 -484 -723 -679
l-378 -354 474 -476 c260 -261 622 -626 805 -810 l331 -335 -267 -3 -267 -3
-726 730 c-400 402 -729 731 -733 731 -3 0 -6 -329 -6 -730 l0 -730 -202 2
-203 3 -3 1518 -2 1517 205 0 205 0 2 -641z m3608 617 c571 -83 917 -294 1110
-676 49 -97 105 -280 131 -425 21 -114 23 -162 23 -390 0 -228 -2 -276 -23
-390 -26 -145 -82 -327 -131 -425 -198 -395 -558 -609 -1153 -686 -93 -12
-256 -17 -679 -21 l-558 -5 0 1522 0 1522 583 -5 c475 -3 603 -7 697 -21z"/>
<path d="M4450 3650 l0 -1182 368 5 c393 5 470 13 647 63 377 107 590 357 667
784 30 165 30 505 0 670 -73 404 -271 648 -619 763 -193 63 -253 70 -680 75
l-383 4 0 -1182z"/>
</g>
</svg>
